<svg width="24" height="24" viewBox="0 0 24 24" fill="none" xmlns="http://www.w3.org/2000/svg">
<mask id="mask0_152_112" style="mask-type:alpha" maskUnits="userSpaceOnUse" x="0" y="0" width="24" height="24">
<rect width="24" height="24" transform="matrix(1 0 0 -1 0 24)" fill="#D9D9D9"/>
</mask>
<g mask="url(#mask0_152_112)">
<path d="M12.0094 8.36825L15.5854 11.9442L14.6094 12.9152L12.7114 11.0172V15.6412H11.3029V11.0172L9.3999 12.9152L8.42865 11.9442L12.0094 8.36825ZM12.0022 2.702C10.7163 2.702 9.50749 2.94633 8.37565 3.435C7.24365 3.92383 6.25899 4.58716 5.42165 5.425C4.58449 6.26283 3.9219 7.24658 3.4339 8.37625C2.9459 9.50608 2.7019 10.7132 2.7019 11.9977C2.7019 13.2836 2.94624 14.4924 3.4349 15.6242C3.92374 16.7562 4.58707 17.7409 5.4249 18.5782C6.26274 19.4154 7.24649 20.078 8.37615 20.566C9.50599 21.054 10.7132 21.298 11.9977 21.298C13.2835 21.298 14.4923 21.0537 15.6242 20.565C16.7562 20.0762 17.7408 19.4128 18.5782 18.575C19.4153 17.7372 20.0779 16.7534 20.5659 15.6237C21.0539 14.4939 21.2979 13.2867 21.2979 12.0022C21.2979 10.7164 21.0536 9.50758 20.5649 8.37575C20.0761 7.24375 19.4127 6.25908 18.5749 5.42175C17.7371 4.58458 16.7533 3.922 15.6237 3.434C14.4938 2.946 13.2867 2.702 12.0022 2.702ZM11.9997 4.101C14.1978 4.101 16.0639 4.86783 17.5979 6.4015C19.1319 7.93533 19.8989 9.80141 19.8989 11.9997C19.8989 14.1979 19.1321 16.064 17.5984 17.598C16.0646 19.132 14.1985 19.899 12.0002 19.899C9.80199 19.899 7.9359 19.1322 6.4019 17.5985C4.8679 16.0647 4.1009 14.1986 4.1009 12.0002C4.1009 9.80208 4.86774 7.936 6.4014 6.402C7.93524 4.868 9.80132 4.101 11.9997 4.101Z" fill="#EB5757"/>
</g>
</svg>
