<svg width="24" height="24" viewBox="0 0 24 24" fill="none" xmlns="http://www.w3.org/2000/svg">
<mask id="mask0_696_167" style="mask-type:alpha" maskUnits="userSpaceOnUse" x="0" y="0" width="24" height="24">
<rect width="24" height="24" fill="#D9D9D9"/>
</mask>
<g mask="url(#mask0_696_167)">
<path d="M12.0094 15.6317L15.5854 12.0557L14.6094 11.0848L12.7114 12.9827V8.35875H11.3029V12.9827L9.3999 11.0848L8.42865 12.0557L12.0094 15.6317ZM12.0022 21.298C10.7163 21.298 9.50749 21.0537 8.37565 20.565C7.24365 20.0762 6.25899 19.4128 5.42165 18.575C4.58449 17.7372 3.9219 16.7534 3.4339 15.6237C2.9459 14.4939 2.7019 13.2867 2.7019 12.0022C2.7019 10.7164 2.94624 9.50758 3.4349 8.37575C3.92374 7.24375 4.58707 6.25908 5.4249 5.42175C6.26274 4.58458 7.24649 3.922 8.37615 3.434C9.50599 2.946 10.7132 2.702 11.9977 2.702C13.2835 2.702 14.4923 2.94633 15.6242 3.435C16.7562 3.92383 17.7408 4.58717 18.5782 5.425C19.4153 6.26283 20.0779 7.24658 20.5659 8.37625C21.0539 9.50608 21.2979 10.7132 21.2979 11.9977C21.2979 13.2836 21.0536 14.4924 20.5649 15.6243C20.0761 16.7563 19.4127 17.7409 18.5749 18.5782C17.7371 19.4154 16.7533 20.078 15.6237 20.566C14.4938 21.054 13.2867 21.298 12.0022 21.298ZM11.9997 19.899C14.1978 19.899 16.0639 19.1322 17.5979 17.5985C19.1319 16.0647 19.8989 14.1986 19.8989 12.0002C19.8989 9.80208 19.1321 7.936 17.5984 6.402C16.0646 4.868 14.1985 4.101 12.0002 4.101C9.80199 4.101 7.9359 4.86783 6.4019 6.4015C4.8679 7.93533 4.1009 9.80142 4.1009 11.9997C4.1009 14.1979 4.86774 16.064 6.4014 17.598C7.93524 19.132 9.80132 19.899 11.9997 19.899Z" fill="#5CB874"/>
</g>
</svg>
