<svg width="24" height="24" viewBox="0 0 24 24" fill="none" xmlns="http://www.w3.org/2000/svg">
<mask id="mask0_590_175" style="mask-type:alpha" maskUnits="userSpaceOnUse" x="0" y="0" width="24" height="24">
<rect width="24" height="24" fill="#D9D9D9"/>
</mask>
<g mask="url(#mask0_590_175)">
<path d="M4.63376 18.7308V17.3318H6.34051V10.052C6.34051 8.71036 6.75717 7.52286 7.59051 6.48953C8.42384 5.45619 9.49051 4.79111 10.7905 4.49428V2.70978H13.2095V4.49428C14.5108 4.79111 15.5787 5.45619 16.413 6.48953C17.2473 7.52286 17.6645 8.71036 17.6645 10.052V17.3318H19.371V18.7308H4.63376ZM12 21.45C11.5097 21.45 11.0925 21.278 10.7485 20.934C10.4047 20.5902 10.2328 20.1731 10.2328 19.6828H13.7673C13.7673 20.1731 13.5953 20.5902 13.2515 20.934C12.9075 21.278 12.4903 21.45 12 21.45ZM7.73951 17.3318H16.2655V10.052C16.2655 8.87553 15.8483 7.87128 15.014 7.03928C14.1797 6.20728 13.1743 5.79128 11.9978 5.79128C10.8214 5.79128 9.81759 6.20728 8.98626 7.03928C8.15509 7.87128 7.73951 8.87553 7.73951 10.052V17.3318ZM2.93076 10.0145C2.93076 8.59486 3.23184 7.28136 3.83401 6.07403C4.43601 4.86686 5.24867 3.84703 6.27201 3.01453L7.13651 4.10878C6.27401 4.81061 5.59059 5.67044 5.08626 6.68828C4.58192 7.70611 4.32976 8.81486 4.32976 10.0145H2.93076ZM19.675 10.0145C19.675 8.81486 19.4224 7.70453 18.9173 6.68353C18.4121 5.66253 17.7275 4.80103 16.8635 4.09903L17.728 3.01453C18.7527 3.84703 19.5665 4.86686 20.1695 6.07403C20.7725 7.28136 21.074 8.59486 21.074 10.0145H19.675Z" fill="#fff"/>
</g>
</svg>
